<svg width="197" height="43" viewBox="0 0 197 43" fill="none" xmlns="http://www.w3.org/2000/svg">
<path d="M24.1071 21.1667H13.6607" stroke="black" stroke-width="0.213806"/>
<rect x="21.4285" y="16.9334" width="2.14286" height="2.11667" fill="white"/>
<rect x="21.4285" y="19.0501" width="2.14286" height="2.11667" fill="white"/>
<rect x="23.0357" y="18.5209" width="2.14286" height="2.11667" fill="white"/>
<rect x="19.8215" y="18.5209" width="2.14286" height="2.11667" fill="white"/>
<rect x="19.8215" y="21.6959" width="2.14286" height="2.11667" fill="white"/>
<rect x="23.0357" y="21.6959" width="2.14286" height="2.11667" fill="white"/>
<rect x="19.2857" y="20.1084" width="2.14286" height="2.11667" fill="white"/>
<rect x="17.1428" y="20.1084" width="2.14286" height="2.11667" fill="white"/>
<rect x="25.7143" y="20.1084" width="2.14286" height="2.11667" fill="white"/>
<rect x="23.5714" y="20.1084" width="2.14286" height="2.11667" fill="white"/>
<rect x="21.4285" y="21.1667" width="2.14286" height="2.11667" fill="white"/>
<rect x="21.4286" y="25.4001" width="2.14286" height="2.11667" fill="white"/>
<rect x="23.5715" y="27.5168" width="2.14286" height="2.11667" fill="white"/>
<rect x="24.6428" y="29.6335" width="2.14286" height="2.11667" fill="white"/>
<rect x="26.7858" y="30.6918" width="2.14286" height="2.11667" fill="white"/>
<rect x="28.9286" y="31.7501" width="2.14286" height="2.11667" fill="white"/>
<rect x="28.9286" y="33.8668" width="2.14286" height="2.11667" fill="white"/>
<rect x="28.9286" y="35.9835" width="2.14286" height="2.11667" fill="white"/>
<rect x="31.0715" y="34.9251" width="2.14286" height="2.11667" fill="white"/>
<rect x="28.9286" y="38.1002" width="2.14286" height="2.11667" fill="white"/>
<rect x="26.7858" y="38.1002" width="2.14286" height="2.11667" fill="white"/>
<rect x="24.6428" y="37.0418" width="2.14286" height="2.11667" fill="white"/>
<rect x="22.5" y="35.9835" width="2.14286" height="2.11667" fill="white"/>
<rect x="21.4286" y="38.1002" width="2.14286" height="2.11667" fill="white"/>
<rect x="21.4286" y="33.8668" width="2.14286" height="2.11667" fill="white"/>
<rect x="20.3572" y="35.9835" width="2.14286" height="2.11667" fill="white"/>
<rect x="18.2144" y="37.0418" width="2.14286" height="2.11667" fill="white"/>
<rect x="16.0715" y="38.1002" width="2.14286" height="2.11667" fill="white"/>
<rect x="15.0001" y="40.2168" width="2.14286" height="2.11667" fill="white"/>
<rect x="13.9286" y="38.1002" width="2.14286" height="2.11667" fill="white"/>
<rect x="13.9286" y="35.9835" width="2.14286" height="2.11667" fill="white"/>
<rect x="11.7858" y="34.9251" width="2.14286" height="2.11667" fill="white"/>
<rect x="13.9286" y="33.8668" width="2.14286" height="2.11667" fill="white"/>
<rect x="13.9286" y="32.2793" width="2.14286" height="2.11667" fill="white"/>
<rect x="16.0715" y="30.6918" width="2.14286" height="2.11667" fill="white"/>
<rect x="18.2144" y="29.6335" width="2.14286" height="2.11667" fill="white"/>
<rect x="19.2857" y="27.5168" width="2.14286" height="2.11667" fill="white"/>
<rect x="27.8572" y="40.2168" width="2.14286" height="2.11667" fill="white"/>
<rect x="21.4286" y="27.5168" width="2.14286" height="2.11667" fill="white"/>
<rect x="21.4286" y="29.6335" width="2.14286" height="2.11667" fill="white"/>
<rect x="21.4286" y="31.7501" width="2.14286" height="2.11667" fill="white"/>
<rect width="2.14286" height="2.11667" transform="matrix(1 0 0 -1 21.4286 16.9334)" fill="white"/>
<rect width="2.14286" height="2.11667" transform="matrix(1 0 0 -1 23.5715 14.8167)" fill="white"/>
<rect width="2.14286" height="2.11667" transform="matrix(1 0 0 -1 24.6428 12.7)" fill="white"/>
<rect width="2.14286" height="2.11667" transform="matrix(1 0 0 -1 26.7858 11.6417)" fill="white"/>
<rect width="2.14286" height="2.11667" transform="matrix(1 0 0 -1 28.9286 10.5834)" fill="white"/>
<rect width="2.14286" height="2.11667" transform="matrix(1 0 0 -1 28.9286 8.46671)" fill="white"/>
<rect width="2.14286" height="2.11667" transform="matrix(1 0 0 -1 28.9286 6.35004)" fill="white"/>
<rect width="2.14286" height="2.11667" transform="matrix(1 0 0 -1 28.9286 4.23337)" fill="white"/>
<rect width="2.14286" height="2.11667" transform="matrix(1 0 0 -1 26.7858 4.23337)" fill="white"/>
<rect width="2.14286" height="2.11667" transform="matrix(1 0 0 -1 24.6428 5.29169)" fill="white"/>
<rect width="2.14286" height="2.11667" transform="matrix(1 0 0 -1 22.5 6.35004)" fill="white"/>
<rect width="2.14286" height="2.11667" transform="matrix(1 0 0 -1 21.4286 8.46671)" fill="white"/>
<rect width="2.14286" height="2.11667" transform="matrix(1 0 0 -1 20.3572 6.35004)" fill="white"/>
<rect width="2.14286" height="2.11667" transform="matrix(1 0 0 -1 21.4286 4.23337)" fill="white"/>
<rect width="2.14286" height="2.11667" transform="matrix(1 0 0 -1 18.2144 5.29169)" fill="white"/>
<rect width="2.14286" height="2.11667" transform="matrix(1 0 0 -1 16.0715 4.23337)" fill="white"/>
<rect width="2.14286" height="2.11667" transform="matrix(1 0 0 -1 15.0001 2.11667)" fill="white"/>
<rect width="2.14286" height="2.11667" transform="matrix(1 0 0 -1 13.9286 4.23337)" fill="white"/>
<rect width="2.14286" height="2.11667" transform="matrix(1 0 0 -1 13.9286 6.35004)" fill="white"/>
<rect width="2.14286" height="2.11667" transform="matrix(1 0 0 -1 13.9286 8.46671)" fill="white"/>
<rect width="2.14286" height="2.11667" transform="matrix(1 0 0 -1 13.9286 10.0542)" fill="white"/>
<rect width="2.14286" height="2.11667" transform="matrix(1 0 0 -1 11.7858 7.40836)" fill="white"/>
<rect width="2.14286" height="2.11667" transform="matrix(1 0 0 -1 31.0715 7.40836)" fill="white"/>
<rect width="2.14286" height="2.11667" transform="matrix(1 0 0 -1 16.0715 11.6417)" fill="white"/>
<rect width="2.14286" height="2.11667" transform="matrix(1 0 0 -1 18.2144 12.7)" fill="white"/>
<rect width="2.14286" height="2.11667" transform="matrix(1 0 0 -1 19.2857 14.8167)" fill="white"/>
<rect width="2.14286" height="2.11667" transform="matrix(1 0 0 -1 27.8572 2.11667)" fill="white"/>
<rect width="2.14286" height="2.11667" transform="matrix(1 0 0 -1 21.4286 14.8167)" fill="white"/>
<rect width="2.14286" height="2.11667" transform="matrix(1 0 0 -1 21.4286 12.7)" fill="white"/>
<rect width="2.14286" height="2.11667" transform="matrix(1 0 0 -1 21.4286 10.5834)" fill="white"/>
<rect width="2.11667" height="2.14286" transform="matrix(0 -1 -1 0 17.1428 22.2251)" fill="white"/>
<rect width="2.11667" height="2.14286" transform="matrix(0 -1 -1 0 15 20.1084)" fill="white"/>
<rect width="2.11667" height="2.14286" transform="matrix(0 -1 -1 0 12.8571 19.0501)" fill="white"/>
<rect width="2.11667" height="2.14286" transform="matrix(0 -1 -1 0 11.7857 16.9334)" fill="white"/>
<rect width="2.11667" height="2.14286" transform="matrix(0 -1 -1 0 10.7142 14.8167)" fill="white"/>
<rect width="2.11667" height="2.14286" transform="matrix(0 -1 -1 0 8.57141 14.8167)" fill="white"/>
<rect width="2.11667" height="2.14286" transform="matrix(0 -1 -1 0 6.42853 14.8167)" fill="white"/>
<rect width="2.11667" height="2.14286" transform="matrix(0 -1 -1 0 7.49994 12.7)" fill="white"/>
<rect width="2.11667" height="2.14286" transform="matrix(0 -1 -1 0 4.28577 14.8167)" fill="white"/>
<rect width="2.11667" height="2.14286" transform="matrix(0 -1 -1 0 4.28577 16.9334)" fill="white"/>
<rect width="2.11667" height="2.14286" transform="matrix(0 -1 -1 0 5.35718 19.0501)" fill="white"/>
<rect width="2.11667" height="2.14286" transform="matrix(0 -1 -1 0 6.42853 21.1667)" fill="white"/>
<rect width="2.11667" height="2.14286" transform="matrix(0 -1 -1 0 4.28577 22.2251)" fill="white"/>
<rect width="2.11667" height="2.14286" transform="matrix(0 -1 -1 0 8.57141 22.2251)" fill="white"/>
<rect width="2.11667" height="2.14286" transform="matrix(0 -1 -1 0 6.42853 23.2834)" fill="white"/>
<rect width="2.11667" height="2.14286" transform="matrix(0 -1 -1 0 5.35718 25.4001)" fill="white"/>
<rect width="2.11667" height="2.14286" transform="matrix(0 -1 -1 0 4.28577 27.5168)" fill="white"/>
<rect width="2.11667" height="2.14286" transform="matrix(0 -1 -1 0 2.14282 28.5751)" fill="white"/>
<rect width="2.11667" height="2.14286" transform="matrix(0 -1 -1 0 4.28577 29.6335)" fill="white"/>
<rect width="2.11667" height="2.14286" transform="matrix(0 -1 -1 0 6.42853 29.6335)" fill="white"/>
<rect width="2.11667" height="2.14286" transform="matrix(0 -1 -1 0 8.57141 29.6335)" fill="white"/>
<rect width="2.11667" height="2.14286" transform="matrix(0 -1 -1 0 7.49994 31.7501)" fill="white"/>
<rect width="2.11667" height="2.14286" transform="matrix(0 -1 -1 0 10.1786 29.6335)" fill="white"/>
<rect width="2.11667" height="2.14286" transform="matrix(0 -1 -1 0 11.7857 27.5168)" fill="white"/>
<rect width="2.11667" height="2.14286" transform="matrix(0 -1 -1 0 12.8571 25.4001)" fill="white"/>
<rect width="2.11667" height="2.14286" transform="matrix(0 -1 -1 0 15 24.3418)" fill="white"/>
<rect width="2.11667" height="2.14286" transform="matrix(0 -1 -1 0 2.14282 15.8751)" fill="white"/>
<rect width="2.11667" height="2.14286" transform="matrix(0 -1 -1 0 15 22.2251)" fill="white"/>
<rect width="2.11667" height="2.14286" transform="matrix(0 -1 -1 0 12.8571 22.2251)" fill="white"/>
<rect width="2.11667" height="2.14286" transform="matrix(0 -1 -1 0 10.7142 22.2251)" fill="white"/>
<rect width="2.11667" height="2.14286" transform="matrix(0 1 1 0 27.8571 20.1084)" fill="white"/>
<rect width="2.11667" height="2.14286" transform="matrix(0 1 1 0 30 22.2251)" fill="white"/>
<rect width="2.11667" height="2.14286" transform="matrix(0 1 1 0 32.1428 23.2834)" fill="white"/>
<rect width="2.11667" height="2.14286" transform="matrix(0 1 1 0 33.2143 25.4001)" fill="white"/>
<rect width="2.11667" height="2.14286" transform="matrix(0 1 1 0 34.2857 27.5168)" fill="white"/>
<rect width="2.11667" height="2.14286" transform="matrix(0 1 1 0 36.4286 27.5168)" fill="white"/>
<rect width="2.11667" height="2.14286" transform="matrix(0 1 1 0 38.5714 27.5168)" fill="white"/>
<rect width="2.11667" height="2.14286" transform="matrix(0 1 1 0 37.5 29.6335)" fill="white"/>
<rect width="2.11667" height="2.14286" transform="matrix(0 1 1 0 40.7142 27.5168)" fill="white"/>
<rect width="2.11667" height="2.14286" transform="matrix(0 1 1 0 40.7142 25.4001)" fill="white"/>
<rect width="2.11667" height="2.14286" transform="matrix(0 1 1 0 39.6428 23.2834)" fill="white"/>
<rect width="2.11667" height="2.14286" transform="matrix(0 1 1 0 38.5714 21.1667)" fill="white"/>
<rect width="2.11667" height="2.14286" transform="matrix(0 1 1 0 40.7142 20.1084)" fill="white"/>
<rect width="2.11667" height="2.14286" transform="matrix(0 1 1 0 36.4286 20.1084)" fill="white"/>
<rect width="2.11667" height="2.14286" transform="matrix(0 1 1 0 38.5714 19.0501)" fill="white"/>
<rect width="2.11667" height="2.14286" transform="matrix(0 1 1 0 39.6428 16.9334)" fill="white"/>
<rect width="2.11667" height="2.14286" transform="matrix(0 1 1 0 40.7142 14.8167)" fill="white"/>
<rect width="2.11667" height="2.14286" transform="matrix(0 1 1 0 42.8571 13.7584)" fill="white"/>
<rect width="2.11667" height="2.14286" transform="matrix(0 1 1 0 40.7142 12.7)" fill="white"/>
<rect width="2.11667" height="2.14286" transform="matrix(0 1 1 0 38.5714 12.7)" fill="white"/>
<rect width="2.11667" height="2.14286" transform="matrix(0 1 1 0 37.5 10.5834)" fill="white"/>
<rect width="2.11667" height="2.14286" transform="matrix(0 1 1 0 36.4286 12.7)" fill="white"/>
<rect width="2.11667" height="2.14286" transform="matrix(0 1 1 0 34.8215 12.7)" fill="white"/>
<rect width="2.11667" height="2.14286" transform="matrix(0 1 1 0 33.2143 14.8167)" fill="white"/>
<rect width="2.11667" height="2.14286" transform="matrix(0 1 1 0 32.1428 16.9334)" fill="white"/>
<rect width="2.11667" height="2.14286" transform="matrix(0 1 1 0 30 17.9917)" fill="white"/>
<rect width="2.11667" height="2.14286" transform="matrix(0 1 1 0 42.8571 26.4584)" fill="white"/>
<rect width="2.11667" height="2.14286" transform="matrix(0 1 1 0 30 20.1084)" fill="white"/>
<rect width="2.11667" height="2.14286" transform="matrix(0 1 1 0 32.1428 20.1084)" fill="white"/>
<rect width="2.11667" height="2.14286" transform="matrix(0 1 1 0 34.2857 20.1084)" fill="white"/>
<rect x="21.4285" y="23.2834" width="2.14286" height="2.11667" fill="white"/>
<path d="M64.0273 12.543V15.4375H62.2578V18.0156H64.0273V24.6133C64.0273 27.0625 65.1758 28.0469 68.1289 28.0469C68.8203 28.0469 69.4062 27.9883 69.7578 27.9062V25.3867C69.5469 25.4219 69.2305 25.4453 68.9258 25.4453C67.918 25.4453 67.4492 24.9883 67.4492 24.0273V18.0156H69.7695V15.4375H67.4492V12.543H64.0273ZM83.2461 15.4375H79.8242V22.6328C79.8242 24.2969 78.875 25.3867 77.3516 25.3867C75.8398 25.3867 75.0078 24.4961 75.0078 22.8203V15.4375H71.5859V23.5352C71.5859 26.4648 73.3906 28.2344 76.1094 28.2344C78.0078 28.2344 79.25 27.3203 79.8711 25.7383H79.9414V28H83.2461V15.4375ZM86.3867 12.543V15.4375H84.6172V18.0156H86.3867V24.6133C86.3867 27.0625 87.5352 28.0469 90.4883 28.0469C91.1797 28.0469 91.7656 27.9883 92.1172 27.9062V25.3867C91.9062 25.4219 91.5898 25.4453 91.2852 25.4453C90.2773 25.4453 89.8086 24.9883 89.8086 24.0273V18.0156H92.1289V15.4375H89.8086V12.543H86.3867ZM106.098 15.2383C104.281 15.2383 102.887 16.1523 102.207 17.6289H102.137V15.4375H98.7617V32.1016H102.184V25.8906H102.254C102.922 27.3086 104.328 28.1992 106.156 28.1992C109.297 28.1992 111.242 25.7617 111.242 21.7188C111.242 17.6641 109.285 15.2383 106.098 15.2383ZM104.949 25.4453C103.273 25.4453 102.172 23.9922 102.172 21.7188C102.172 19.4688 103.273 17.9805 104.949 17.9805C106.66 17.9805 107.738 19.4453 107.738 21.7188C107.738 24.0039 106.66 25.4453 104.949 25.4453ZM118.777 28.2695C122.574 28.2695 125 25.8438 125 21.707C125 17.6289 122.539 15.168 118.777 15.168C115.016 15.168 112.555 17.6406 112.555 21.707C112.555 25.832 114.98 28.2695 118.777 28.2695ZM118.777 25.6562C117.09 25.6562 116.023 24.2383 116.023 21.7188C116.023 19.2227 117.113 17.7812 118.777 17.7812C120.441 17.7812 121.52 19.2227 121.52 21.7188C121.52 24.2383 120.453 25.6562 118.777 25.6562ZM126.77 28H130.191V20.418C130.191 19.0117 131.07 18.0273 132.371 18.0273C133.637 18.0273 134.398 18.8242 134.398 20.1719V28H137.691V20.3711C137.691 18.9766 138.547 18.0273 139.848 18.0273C141.172 18.0273 141.898 18.8242 141.898 20.2773V28H145.32V19.4219C145.32 16.8906 143.668 15.2031 141.207 15.2031C139.367 15.2031 137.867 16.1992 137.305 17.7812H137.234C136.812 16.1406 135.547 15.2031 133.73 15.2031C132.02 15.2031 130.672 16.1992 130.145 17.7109H130.074V15.4375H126.77V28ZM153.254 28.2695C157.051 28.2695 159.477 25.8438 159.477 21.707C159.477 17.6289 157.016 15.168 153.254 15.168C149.492 15.168 147.031 17.6406 147.031 21.707C147.031 25.832 149.457 28.2695 153.254 28.2695ZM153.254 25.6562C151.566 25.6562 150.5 24.2383 150.5 21.7188C150.5 19.2227 151.59 17.7812 153.254 17.7812C154.918 17.7812 155.996 19.2227 155.996 21.7188C155.996 24.2383 154.93 25.6562 153.254 25.6562ZM167.047 25.3281C165.348 25.3281 164.293 23.9922 164.293 21.6953C164.293 19.4102 165.359 17.9805 167.047 17.9805C168.758 17.9805 169.848 19.4336 169.848 21.6953C169.848 23.9688 168.758 25.3281 167.047 25.3281ZM166.988 32.7344C170.75 32.7344 173.258 30.8242 173.258 27.8242V15.4375H169.883V17.6289H169.824C169.168 16.1875 167.75 15.2383 165.945 15.2383C162.758 15.2383 160.789 17.6875 160.789 21.6719C160.789 25.5977 162.816 27.9648 165.887 27.9648C167.703 27.9648 169.18 27.0508 169.766 25.7148H169.836V27.918C169.836 29.3711 168.852 30.3555 167.082 30.3555C165.781 30.3555 164.797 29.7578 164.527 28.8906H161.176C161.445 31.1289 163.684 32.7344 166.988 32.7344ZM187.098 15.4375H183.676V22.6328C183.676 24.2969 182.727 25.3867 181.203 25.3867C179.691 25.3867 178.859 24.4961 178.859 22.8203V15.4375H175.438V23.5352C175.438 26.4648 177.242 28.2344 179.961 28.2344C181.859 28.2344 183.102 27.3203 183.723 25.7383H183.793V28H187.098V15.4375ZM190.238 12.543V15.4375H188.469V18.0156H190.238V24.6133C190.238 27.0625 191.387 28.0469 194.34 28.0469C195.031 28.0469 195.617 27.9883 195.969 27.9062V25.3867C195.758 25.4219 195.441 25.4453 195.137 25.4453C194.129 25.4453 193.66 24.9883 193.66 24.0273V18.0156H195.98V15.4375H193.66V12.543H190.238Z" fill="white"/>
</svg>
