<svg width="38" height="36" viewBox="0 0 38 36" fill="none" xmlns="http://www.w3.org/2000/svg">
<path d="M20.3571 17.6224H11.5356" stroke="black" stroke-width="0.180547"/>
<rect x="18.0953" y="14.0979" width="1.80952" height="1.76224" fill="white"/>
<rect x="18.0953" y="15.8602" width="1.80952" height="1.76224" fill="white"/>
<rect x="19.4525" y="15.4196" width="1.80952" height="1.76224" fill="white"/>
<rect x="16.7382" y="15.4196" width="1.80952" height="1.76224" fill="white"/>
<rect x="16.7382" y="18.063" width="1.80952" height="1.76224" fill="white"/>
<rect x="19.4525" y="18.063" width="1.80952" height="1.76224" fill="white"/>
<rect x="16.2856" y="16.7413" width="1.80952" height="1.76224" fill="white"/>
<rect x="14.4762" y="16.7413" width="1.80952" height="1.76224" fill="white"/>
<rect x="21.7145" y="16.7413" width="1.80952" height="1.76224" fill="white"/>
<rect x="19.9047" y="16.7413" width="1.80952" height="1.76224" fill="white"/>
<rect x="18.0953" y="17.6224" width="1.80952" height="1.76224" fill="white"/>
<rect x="18.0953" y="21.1469" width="1.80952" height="1.76224" fill="white"/>
<rect x="19.9047" y="22.9092" width="1.80952" height="1.76224" fill="white"/>
<rect x="20.8096" y="24.6714" width="1.80952" height="1.76224" fill="white"/>
<rect x="22.6191" y="25.5525" width="1.80952" height="1.76224" fill="white"/>
<rect x="24.4287" y="26.4336" width="1.80952" height="1.76224" fill="white"/>
<rect x="24.4287" y="28.1959" width="1.80952" height="1.76224" fill="white"/>
<rect x="24.4287" y="29.9581" width="1.80952" height="1.76224" fill="white"/>
<rect x="26.2382" y="29.077" width="1.80952" height="1.76224" fill="white"/>
<rect x="24.4287" y="31.7203" width="1.80952" height="1.76224" fill="white"/>
<rect x="22.6191" y="31.7203" width="1.80952" height="1.76224" fill="white"/>
<rect x="20.8096" y="30.8392" width="1.80952" height="1.76224" fill="white"/>
<rect x="19" y="29.9581" width="1.80952" height="1.76224" fill="white"/>
<rect x="18.0953" y="31.7203" width="1.80952" height="1.76224" fill="white"/>
<rect x="18.0953" y="28.1959" width="1.80952" height="1.76224" fill="white"/>
<rect x="17.1907" y="29.9581" width="1.80952" height="1.76224" fill="white"/>
<rect x="15.3811" y="30.8392" width="1.80952" height="1.76224" fill="white"/>
<rect x="13.5717" y="31.7203" width="1.80952" height="1.76224" fill="white"/>
<rect x="12.6666" y="33.4826" width="1.80952" height="1.76224" fill="white"/>
<rect x="11.762" y="31.7203" width="1.80952" height="1.76224" fill="white"/>
<rect x="11.762" y="29.9581" width="1.80952" height="1.76224" fill="white"/>
<rect x="9.95251" y="29.077" width="1.80952" height="1.76224" fill="white"/>
<rect x="11.762" y="28.1959" width="1.80952" height="1.76224" fill="white"/>
<rect x="11.762" y="26.8742" width="1.80952" height="1.76224" fill="white"/>
<rect x="13.5717" y="25.5525" width="1.80952" height="1.76224" fill="white"/>
<rect x="15.3811" y="24.6714" width="1.80952" height="1.76224" fill="white"/>
<rect x="16.2858" y="22.9092" width="1.80952" height="1.76224" fill="white"/>
<rect x="23.5238" y="33.4826" width="1.80952" height="1.76224" fill="white"/>
<rect x="18.0953" y="22.9092" width="1.80952" height="1.76224" fill="white"/>
<rect x="18.0953" y="24.6714" width="1.80952" height="1.76224" fill="white"/>
<rect x="18.0953" y="26.4336" width="1.80952" height="1.76224" fill="white"/>
<rect width="1.80952" height="1.76224" transform="matrix(1 0 0 -1 18.0953 14.0979)" fill="white"/>
<rect width="1.80952" height="1.76224" transform="matrix(1 0 0 -1 19.9047 12.3356)" fill="white"/>
<rect width="1.80952" height="1.76224" transform="matrix(1 0 0 -1 20.8096 10.5735)" fill="white"/>
<rect width="1.80952" height="1.76224" transform="matrix(1 0 0 -1 22.6191 9.69232)" fill="white"/>
<rect width="1.80952" height="1.76224" transform="matrix(1 0 0 -1 24.4287 8.81122)" fill="white"/>
<rect width="1.80952" height="1.76224" transform="matrix(1 0 0 -1 24.4287 7.04901)" fill="white"/>
<rect width="1.80952" height="1.76224" transform="matrix(1 0 0 -1 24.4287 5.28677)" fill="white"/>
<rect width="1.80952" height="1.76224" transform="matrix(1 0 0 -1 24.4287 3.52454)" fill="white"/>
<rect width="1.80952" height="1.76224" transform="matrix(1 0 0 -1 22.6191 3.52454)" fill="white"/>
<rect width="1.80952" height="1.76224" transform="matrix(1 0 0 -1 20.8096 4.40555)" fill="white"/>
<rect width="1.80952" height="1.76224" transform="matrix(1 0 0 -1 19 5.28677)" fill="white"/>
<rect width="1.80952" height="1.76224" transform="matrix(1 0 0 -1 18.0953 7.04901)" fill="white"/>
<rect width="1.80952" height="1.76224" transform="matrix(1 0 0 -1 17.1907 5.28677)" fill="white"/>
<rect width="1.80952" height="1.76224" transform="matrix(1 0 0 -1 18.0953 3.52454)" fill="white"/>
<rect width="1.80952" height="1.76224" transform="matrix(1 0 0 -1 15.3811 4.40555)" fill="white"/>
<rect width="1.80952" height="1.76224" transform="matrix(1 0 0 -1 13.5717 3.52454)" fill="white"/>
<rect width="1.80952" height="1.76224" transform="matrix(1 0 0 -1 12.6666 1.76224)" fill="white"/>
<rect width="1.80952" height="1.76224" transform="matrix(1 0 0 -1 11.762 3.52454)" fill="white"/>
<rect width="1.80952" height="1.76224" transform="matrix(1 0 0 -1 11.762 5.28677)" fill="white"/>
<rect width="1.80952" height="1.76224" transform="matrix(1 0 0 -1 11.762 7.04901)" fill="white"/>
<rect width="1.80952" height="1.76224" transform="matrix(1 0 0 -1 11.762 8.37064)" fill="white"/>
<rect width="1.80952" height="1.76224" transform="matrix(1 0 0 -1 9.95251 6.16785)" fill="white"/>
<rect width="1.80952" height="1.76224" transform="matrix(1 0 0 -1 26.2382 6.16785)" fill="white"/>
<rect width="1.80952" height="1.76224" transform="matrix(1 0 0 -1 13.5717 9.69232)" fill="white"/>
<rect width="1.80952" height="1.76224" transform="matrix(1 0 0 -1 15.3811 10.5735)" fill="white"/>
<rect width="1.80952" height="1.76224" transform="matrix(1 0 0 -1 16.2858 12.3356)" fill="white"/>
<rect width="1.80952" height="1.76224" transform="matrix(1 0 0 -1 23.5238 1.76224)" fill="white"/>
<rect width="1.80952" height="1.76224" transform="matrix(1 0 0 -1 18.0953 12.3356)" fill="white"/>
<rect width="1.80952" height="1.76224" transform="matrix(1 0 0 -1 18.0953 10.5735)" fill="white"/>
<rect width="1.80952" height="1.76224" transform="matrix(1 0 0 -1 18.0953 8.81122)" fill="white"/>
<rect width="1.76224" height="1.80952" transform="matrix(0 -1 -1 0 14.4762 18.5035)" fill="white"/>
<rect width="1.76224" height="1.80952" transform="matrix(0 -1 -1 0 12.6666 16.7413)" fill="white"/>
<rect width="1.76224" height="1.80952" transform="matrix(0 -1 -1 0 10.8572 15.8602)" fill="white"/>
<rect width="1.76224" height="1.80952" transform="matrix(0 -1 -1 0 9.95251 14.0979)" fill="white"/>
<rect width="1.76224" height="1.80952" transform="matrix(0 -1 -1 0 9.04749 12.3356)" fill="white"/>
<rect width="1.76224" height="1.80952" transform="matrix(0 -1 -1 0 7.23804 12.3356)" fill="white"/>
<rect width="1.76224" height="1.80952" transform="matrix(0 -1 -1 0 5.42859 12.3356)" fill="white"/>
<rect width="1.76224" height="1.80952" transform="matrix(0 -1 -1 0 6.33337 10.5735)" fill="white"/>
<rect width="1.76224" height="1.80952" transform="matrix(0 -1 -1 0 3.61914 12.3356)" fill="white"/>
<rect width="1.76224" height="1.80952" transform="matrix(0 -1 -1 0 3.61914 14.0979)" fill="white"/>
<rect width="1.76224" height="1.80952" transform="matrix(0 -1 -1 0 4.5238 15.8602)" fill="white"/>
<rect width="1.76224" height="1.80952" transform="matrix(0 -1 -1 0 5.42859 17.6224)" fill="white"/>
<rect width="1.76224" height="1.80952" transform="matrix(0 -1 -1 0 3.61914 18.5035)" fill="white"/>
<rect width="1.76224" height="1.80952" transform="matrix(0 -1 -1 0 7.23804 18.5035)" fill="white"/>
<rect width="1.76224" height="1.80952" transform="matrix(0 -1 -1 0 5.42859 19.3846)" fill="white"/>
<rect width="1.76224" height="1.80952" transform="matrix(0 -1 -1 0 4.5238 21.1469)" fill="white"/>
<rect width="1.76224" height="1.80952" transform="matrix(0 -1 -1 0 3.61914 22.9092)" fill="white"/>
<rect width="1.76224" height="1.80952" transform="matrix(0 -1 -1 0 1.80957 23.7902)" fill="white"/>
<rect width="1.76224" height="1.80952" transform="matrix(0 -1 -1 0 3.61914 24.6714)" fill="white"/>
<rect width="1.76224" height="1.80952" transform="matrix(0 -1 -1 0 5.42859 24.6714)" fill="white"/>
<rect width="1.76224" height="1.80952" transform="matrix(0 -1 -1 0 7.23804 24.6714)" fill="white"/>
<rect width="1.76224" height="1.80952" transform="matrix(0 -1 -1 0 6.33337 26.4336)" fill="white"/>
<rect width="1.76224" height="1.80952" transform="matrix(0 -1 -1 0 8.59521 24.6714)" fill="white"/>
<rect width="1.76224" height="1.80952" transform="matrix(0 -1 -1 0 9.95251 22.9092)" fill="white"/>
<rect width="1.76224" height="1.80952" transform="matrix(0 -1 -1 0 10.8572 21.1469)" fill="white"/>
<rect width="1.76224" height="1.80952" transform="matrix(0 -1 -1 0 12.6666 20.2658)" fill="white"/>
<rect width="1.76224" height="1.80952" transform="matrix(0 -1 -1 0 1.80957 13.2168)" fill="white"/>
<rect width="1.76224" height="1.80952" transform="matrix(0 -1 -1 0 12.6666 18.5035)" fill="white"/>
<rect width="1.76224" height="1.80952" transform="matrix(0 -1 -1 0 10.8572 18.5035)" fill="white"/>
<rect width="1.76224" height="1.80952" transform="matrix(0 -1 -1 0 9.04749 18.5035)" fill="white"/>
<rect width="1.76224" height="1.80952" transform="matrix(0 1 1 0 23.5238 16.7412)" fill="white"/>
<rect width="1.76224" height="1.80952" transform="matrix(0 1 1 0 25.3334 18.5035)" fill="white"/>
<rect width="1.76224" height="1.80952" transform="matrix(0 1 1 0 27.1428 19.3846)" fill="white"/>
<rect width="1.76224" height="1.80952" transform="matrix(0 1 1 0 28.0477 21.1469)" fill="white"/>
<rect width="1.76224" height="1.80952" transform="matrix(0 1 1 0 28.9524 22.9092)" fill="white"/>
<rect width="1.76224" height="1.80952" transform="matrix(0 1 1 0 30.762 22.9092)" fill="white"/>
<rect width="1.76224" height="1.80952" transform="matrix(0 1 1 0 32.5715 22.9092)" fill="white"/>
<rect width="1.76224" height="1.80952" transform="matrix(0 1 1 0 31.6666 24.6714)" fill="white"/>
<rect width="1.76224" height="1.80952" transform="matrix(0 1 1 0 34.3809 22.9092)" fill="white"/>
<rect width="1.76224" height="1.80952" transform="matrix(0 1 1 0 34.3809 21.1469)" fill="white"/>
<rect width="1.76224" height="1.80952" transform="matrix(0 1 1 0 33.4762 19.3846)" fill="white"/>
<rect width="1.76224" height="1.80952" transform="matrix(0 1 1 0 32.5715 17.6224)" fill="white"/>
<rect width="1.76224" height="1.80952" transform="matrix(0 1 1 0 34.3809 16.7412)" fill="white"/>
<rect width="1.76224" height="1.80952" transform="matrix(0 1 1 0 30.762 16.7412)" fill="white"/>
<rect width="1.76224" height="1.80952" transform="matrix(0 1 1 0 32.5715 15.8602)" fill="white"/>
<rect width="1.76224" height="1.80952" transform="matrix(0 1 1 0 33.4762 14.0979)" fill="white"/>
<rect width="1.76224" height="1.80952" transform="matrix(0 1 1 0 34.3809 12.3356)" fill="white"/>
<rect width="1.76224" height="1.80952" transform="matrix(0 1 1 0 36.1905 11.4546)" fill="white"/>
<rect width="1.76224" height="1.80952" transform="matrix(0 1 1 0 34.3809 10.5735)" fill="white"/>
<rect width="1.76224" height="1.80952" transform="matrix(0 1 1 0 32.5715 10.5735)" fill="white"/>
<rect width="1.76224" height="1.80952" transform="matrix(0 1 1 0 31.6666 8.81122)" fill="white"/>
<rect width="1.76224" height="1.80952" transform="matrix(0 1 1 0 30.762 10.5735)" fill="white"/>
<rect width="1.76224" height="1.80952" transform="matrix(0 1 1 0 29.4048 10.5735)" fill="white"/>
<rect width="1.76224" height="1.80952" transform="matrix(0 1 1 0 28.0477 12.3356)" fill="white"/>
<rect width="1.76224" height="1.80952" transform="matrix(0 1 1 0 27.1428 14.0979)" fill="white"/>
<rect width="1.76224" height="1.80952" transform="matrix(0 1 1 0 25.3334 14.979)" fill="white"/>
<rect width="1.76224" height="1.80952" transform="matrix(0 1 1 0 36.1905 22.028)" fill="white"/>
<rect width="1.76224" height="1.80952" transform="matrix(0 1 1 0 25.3334 16.7412)" fill="white"/>
<rect width="1.76224" height="1.80952" transform="matrix(0 1 1 0 27.1428 16.7412)" fill="white"/>
<rect width="1.76224" height="1.80952" transform="matrix(0 1 1 0 28.9524 16.7412)" fill="white"/>
<rect x="18.0953" y="19.3846" width="1.80952" height="1.76224" fill="white"/>
</svg>
