<svg width="1024" height="464" viewBox="0 0 1024 464" fill="none" xmlns="http://www.w3.org/2000/svg">
    <rect x="487.524" y="390.019" width="48.7524" height="48.7524" fill="white" fill-opacity="0.15"/>
    <rect x="487.524" y="438.771" width="48.7524" height="48.7524" fill="white" fill-opacity="0.15"/>
    <rect x="536.59" y="414.434" width="48.7524" height="48.7524" fill="white" fill-opacity="0.15"/>
    <rect x="438.542" y="414.434" width="48.7524" height="48.7524" fill="white" fill-opacity="0.15"/>
    <rect width="48.7524" height="48.7524" transform="matrix(1 0 0 -1 487.525 390.019)" fill="white" fill-opacity="0.15"/>
    <rect width="48.7524" height="48.7524" transform="matrix(1 0 0 -1 536.276 341.267)" fill="white" fill-opacity="0.15"/>
    <rect width="48.7524" height="48.7524" transform="matrix(1 0 0 -1 560.652 292.514)" fill="white" fill-opacity="0.15"/>
    <rect width="48.7524" height="48.7524" transform="matrix(1 0 0 -1 609.405 268.138)" fill="white" fill-opacity="0.15"/>
    <rect width="48.7524" height="48.7524" transform="matrix(1 0 0 -1 658.157 243.295)" fill="white" fill-opacity="0.15"/>
    <rect width="48.7524" height="48.7524" transform="matrix(1 0 0 -1 658.157 195.009)" fill="white" fill-opacity="0.15"/>
    <rect width="48.7524" height="48.7524" transform="matrix(1 0 0 -1 658.157 146.257)" fill="white" fill-opacity="0.15"/>
    <rect width="48.7524" height="48.7524" transform="matrix(1 0 0 -1 658.157 97.5047)" fill="white" fill-opacity="0.15"/>
    <rect width="48.7524" height="48.7524" transform="matrix(1 0 0 -1 609.405 97.5047)" fill="white" fill-opacity="0.15"/>
    <rect width="48.7524" height="48.7524" transform="matrix(1 0 0 -1 560.652 121.881)" fill="white" fill-opacity="0.15"/>
    <rect width="48.7524" height="48.7524" transform="matrix(1 0 0 -1 511.9 146.257)" fill="white" fill-opacity="0.15"/>
    <rect width="48.7524" height="48.7524" transform="matrix(1 0 0 -1 487.525 195.009)" fill="white" fill-opacity="0.15"/>
    <rect width="48.7524" height="48.7524" transform="matrix(1 0 0 -1 463.148 146.257)" fill="white" fill-opacity="0.15"/>
    <rect width="48.7524" height="48.7524" transform="matrix(1 0 0 -1 487.525 97.5047)" fill="white" fill-opacity="0.15"/>
    <rect width="48.7524" height="48.7524" transform="matrix(1 0 0 -1 414.396 121.881)" fill="white" fill-opacity="0.15"/>
    <rect width="48.7524" height="48.7524" transform="matrix(1 0 0 -1 365.644 97.5047)" fill="white" fill-opacity="0.15"/>
    <rect width="48.7524" height="48.7524" transform="matrix(1 0 0 -1 341.267 48.7524)" fill="white" fill-opacity="0.15"/>
    <rect width="48.7524" height="48.7524" transform="matrix(1 0 0 -1 316.891 97.5047)" fill="white" fill-opacity="0.15"/>
    <rect width="48.7524" height="48.7524" transform="matrix(1 0 0 -1 316.891 146.257)" fill="white" fill-opacity="0.15"/>
    <rect width="48.7524" height="48.7524" transform="matrix(1 0 0 -1 316.891 195.009)" fill="white" fill-opacity="0.15"/>
    <rect width="48.7524" height="48.7524" transform="matrix(1 0 0 -1 316.891 243.295)" fill="white" fill-opacity="0.15"/>
    <rect width="48.7524" height="48.7524" transform="matrix(1 0 0 -1 268.139 170.633)" fill="white" fill-opacity="0.15"/>
    <rect width="48.7524" height="48.7524" transform="matrix(1 0 0 -1 706.91 170.633)" fill="white" fill-opacity="0.15"/>
    <rect width="48.7524" height="48.7524" transform="matrix(1 0 0 -1 365.644 268.138)" fill="white" fill-opacity="0.15"/>
    <rect width="48.7524" height="48.7524" transform="matrix(1 0 0 -1 414.396 292.514)" fill="white" fill-opacity="0.15"/>
    <rect width="48.7524" height="48.7524" transform="matrix(1 0 0 -1 438.771 341.267)" fill="white" fill-opacity="0.15"/>
    <rect width="48.7524" height="48.7524" transform="matrix(1 0 0 -1 633.782 48.7524)" fill="white" fill-opacity="0.15"/>
    <rect width="48.7524" height="48.7524" transform="matrix(1 0 0 -1 487.525 341.267)" fill="white" fill-opacity="0.15"/>
    <rect width="48.7524" height="48.7524" transform="matrix(1 0 0 -1 487.525 292.514)" fill="white" fill-opacity="0.15"/>
    <rect width="48.7524" height="48.7524" transform="matrix(1 0 0 -1 487.525 243.762)" fill="white" fill-opacity="0.15"/>
    <rect width="48.7524" height="48.7524" transform="matrix(0 -1 -1 0 341.267 463.148)" fill="white" fill-opacity="0.15"/>
    <rect width="48.7524" height="48.7524" transform="matrix(0 -1 -1 0 292.514 438.771)" fill="white" fill-opacity="0.15"/>
    <rect width="48.7524" height="48.7524" transform="matrix(0 -1 -1 0 268.138 390.019)" fill="white" fill-opacity="0.15"/>
    <rect width="48.7524" height="48.7524" transform="matrix(0 -1 -1 0 244.229 341.267)" fill="white" fill-opacity="0.15"/>
    <rect width="48.7524" height="48.7524" transform="matrix(0 -1 -1 0 195.009 341.267)" fill="white" fill-opacity="0.15"/>
    <rect width="48.7524" height="48.7524" transform="matrix(0 -1 -1 0 146.257 341.267)" fill="white" fill-opacity="0.15"/>
    <rect width="48.7524" height="48.7524" transform="matrix(0 -1 -1 0 170.633 292.514)" fill="white" fill-opacity="0.15"/>
    <rect width="48.7524" height="48.7524" transform="matrix(0 -1 -1 0 97.5053 341.267)" fill="white" fill-opacity="0.15"/>
    <rect width="48.7524" height="48.7524" transform="matrix(0 -1 -1 0 97.5053 390.019)" fill="white" fill-opacity="0.15"/>
    <rect width="48.7524" height="48.7524" transform="matrix(0 -1 -1 0 121.881 438.771)" fill="white" fill-opacity="0.15"/>
    <rect width="48.7524" height="48.7524" transform="matrix(0 -1 -1 0 48.7524 365.643)" fill="white" fill-opacity="0.15"/>
    <rect width="48.7524" height="48.7524" transform="matrix(0 1 1 0 633.781 463.148)" fill="white" fill-opacity="0.15"/>
    <rect width="48.7524" height="48.7524" transform="matrix(0 1 1 0 926.295 463.148)" fill="white" fill-opacity="0.15"/>
    <rect width="48.7524" height="48.7524" transform="matrix(0 1 1 0 828.791 463.148)" fill="white" fill-opacity="0.15"/>
    <rect width="48.7524" height="48.7524" transform="matrix(0 1 1 0 877.543 438.771)" fill="white" fill-opacity="0.15"/>
    <rect width="48.7524" height="48.7524" transform="matrix(0 1 1 0 901.919 390.019)" fill="white" fill-opacity="0.15"/>
    <rect width="48.7524" height="48.7524" transform="matrix(0 1 1 0 926.295 341.267)" fill="white" fill-opacity="0.15"/>
    <rect width="48.7524" height="48.7524" transform="matrix(0 1 1 0 975.048 316.89)" fill="white" fill-opacity="0.15"/>
    <rect width="48.7524" height="48.7524" transform="matrix(0 1 1 0 926.295 292.514)" fill="white" fill-opacity="0.15"/>
    <rect width="48.7524" height="48.7524" transform="matrix(0 1 1 0 877.543 292.514)" fill="white" fill-opacity="0.15"/>
    <rect width="48.7524" height="48.7524" transform="matrix(0 1 1 0 853.167 243.762)" fill="white" fill-opacity="0.15"/>
    <rect width="48.7524" height="48.7524" transform="matrix(0 1 1 0 828.791 292.514)" fill="white" fill-opacity="0.15"/>
    <rect width="48.7524" height="48.7524" transform="matrix(0 1 1 0 780.226 292.514)" fill="white" fill-opacity="0.15"/>
    <rect width="48.7524" height="48.7524" transform="matrix(0 1 1 0 755.662 341.267)" fill="white" fill-opacity="0.15"/>
    <rect width="48.7524" height="48.7524" transform="matrix(0 1 1 0 731.286 390.019)" fill="white" fill-opacity="0.15"/>
    <rect width="48.7524" height="48.7524" transform="matrix(0 1 1 0 682.533 414.395)" fill="white" fill-opacity="0.15"/>
    <rect width="48.7524" height="48.7524" transform="matrix(0 1 1 0 682.533 463.148)" fill="white" fill-opacity="0.15"/>
    <rect width="48.7524" height="48.7524" transform="matrix(0 1 1 0 731.286 463.148)" fill="white" fill-opacity="0.15"/>
    <rect width="48.7524" height="48.7524" transform="matrix(0 1 1 0 780.038 463.148)" fill="white" fill-opacity="0.15"/>
</svg>