<svg width="173" height="165" viewBox="0 0 173 165" fill="none" xmlns="http://www.w3.org/2000/svg">
<circle cx="124.683" cy="125.469" r="35.531" fill="white"/>
<path d="M135.547 142.75C135.547 140.808 133.973 139.234 132.031 139.234H117.969C116.027 139.234 114.453 140.808 114.453 142.75V144H135.547V142.75Z" fill="#A9B7C4"/>
<path d="M142.656 113.453V111.109H128.3C127.946 110.117 127.165 109.336 126.172 108.981V104H123.828V108.981C122.835 109.336 122.054 110.117 121.7 111.109H107.344V113.453H110.274L105 126.344C105 129.574 107.629 132.203 110.859 132.203H113.203C116.434 132.203 119.062 129.574 119.062 126.344L113.765 113.453H121.7C122.054 114.446 122.835 115.227 123.828 115.581V132.332C121.538 132.8 119.726 134.6 119.259 136.891H130.741C130.274 134.6 128.462 132.8 126.172 132.332V115.581C127.165 115.227 127.946 114.446 128.3 113.453H136.211L130.938 126.344C130.938 129.574 133.566 132.203 136.797 132.203H139.141C142.371 132.203 145 129.574 145 126.344L139.702 113.453H142.656ZM116.132 125.172H107.93L112.031 115.328L116.132 125.172ZM142.07 125.172H133.868L137.969 115.328L142.07 125.172Z" fill="#A9B7C4"/>
<circle cx="48.8552" cy="48.8552" r="48.8552" fill="white"/>
<g clip-path="url(#clip0)">
<path d="M68.6364 25H29.3637C26.957 25 25 26.957 25 29.3637V68.6364C25 71.043 26.957 73.0001 29.3637 73.0001H68.6364C71.043 73.0001 73.0001 71.0431 73.0001 68.6364V29.3637C73 26.957 71.043 25 68.6364 25ZM64.2728 54.4546C64.2728 55.0576 63.7848 55.5455 63.1818 55.5455H55.5454V63.1819C55.5454 63.7849 55.0575 64.2729 54.4545 64.2729H43.5454C42.9424 64.2729 42.4545 63.7849 42.4545 63.1819V55.5455H34.8182C34.2152 55.5455 33.7272 55.0576 33.7272 54.4546V43.5454C33.7272 42.9424 34.2152 42.4545 34.8182 42.4545H42.4546V34.8182C42.4546 34.2152 42.9425 33.7272 43.5455 33.7272H54.4546C55.0576 33.7272 55.5455 34.2152 55.5455 34.8182V42.4546H63.1819C63.7849 42.4546 64.2729 42.9425 64.2729 43.5455V54.4546H64.2728Z" fill="#DB1417"/>
</g>
<circle cx="27.7586" cy="136.759" r="27.7586" fill="white"/>
<path fill-rule="evenodd" clip-rule="evenodd" d="M33.3867 128.788C35.9877 129.391 36.9827 130.912 38.2301 133.005H33.3867V128.788ZM18.1862 133.181C18.6955 133.181 19.0651 133.427 19.0651 134.002C19.0651 134.486 18.673 134.879 18.1887 134.88H12.8789C12.3934 134.88 12 135.274 12 135.759C12 136.245 12.3934 136.638 12.8789 136.638H20.7891C21.2791 136.638 21.6714 137.032 21.6714 137.517C21.6714 138.003 21.278 138.396 20.7925 138.396H12.8789C12.3934 138.396 12 138.79 12 139.275C12 139.76 12.3934 140.154 12.8789 140.154H14.8125V142.791C14.8125 143.276 15.2059 143.67 15.6914 143.67H17.4581C17.7731 145.221 19.1439 146.365 20.7598 146.365C22.3757 146.365 23.7464 145.221 24.0614 143.67H32.9855C33.3004 145.221 34.6712 146.365 36.2871 146.365C37.903 146.365 39.2738 145.221 39.5887 143.67H41.1211C41.6066 143.67 42 143.276 42 142.791V137.517C42 134.938 39.28 134.767 39.2775 134.763H32.5078C32.0224 134.763 31.6289 134.37 31.6289 133.884V128.611H15.6914C15.2059 128.611 14.8125 129.004 14.8125 129.49V131.423H13.7578C13.2724 131.423 12.8789 131.817 12.8789 132.302C12.8789 132.788 13.2724 133.181 13.7578 133.181H18.1862ZM37.4265 141.856C38.0557 142.486 38.0557 143.506 37.4265 144.135C36.4144 145.147 34.6758 144.427 34.6758 142.996C34.6758 141.564 36.4144 140.844 37.4265 141.856ZM21.8991 141.856C22.5283 142.486 22.5283 143.506 21.8991 144.135C20.887 145.147 19.1484 144.427 19.1484 142.996C19.1484 141.564 20.887 140.844 21.8991 141.856Z" fill="#1890FF"/>
<circle cx="144.759" cy="37.7586" r="27.7586" fill="white"/>
<g clip-path="url(#clip1)">
<path d="M155.297 26H152.578C150.64 26 149.062 27.5771 149.062 29.5156V34.1564C149.062 35.8746 147.772 37.297 146.109 37.5051V28.1095C146.109 27.7218 146.425 27.4063 146.812 27.4063H147.422C147.81 27.4063 148.125 27.0915 148.125 26.7032C148.125 26.3149 147.81 26.0001 147.422 26.0001H140.578C140.19 26.0001 139.875 26.3149 139.875 26.7032C139.875 27.0915 140.19 27.4063 140.578 27.4063H141.187C141.575 27.4063 141.891 27.7218 141.891 28.1095V37.505C140.228 37.2967 138.938 35.8744 138.938 34.1564V29.5156C138.938 27.5771 137.361 26 135.422 26H132.703C132.315 26 132 26.3148 132 26.7031V29.5156C132 29.9038 132.315 30.2185 132.703 30.2187L134.719 30.2199V34.1564C134.719 38.2019 137.899 41.5188 141.89 41.7385V47.8906C141.89 48.2783 141.575 48.5938 141.187 48.5938H140.578C140.19 48.5938 139.875 48.9086 139.875 49.2969C139.875 49.6852 140.19 50 140.578 50H147.422C147.81 50 148.125 49.6852 148.125 49.2969C148.125 48.9086 147.81 48.5938 147.422 48.5938H146.812C146.425 48.5938 146.109 48.2783 146.109 47.8906V41.7385C150.101 41.5188 153.281 38.202 153.281 34.1566L153.283 30.2187H155.297C155.685 30.2187 156 29.9039 156 29.5156V26.7031C156 26.3148 155.685 26 155.297 26V26Z" fill="#8AB775"/>
</g>
<defs>
<clipPath id="clip0">
<rect width="48" height="48" fill="white" transform="translate(25 25)"/>
</clipPath>
<clipPath id="clip1">
<rect width="24" height="24" fill="white" transform="translate(132 26)"/>
</clipPath>
</defs>
</svg>
