<svg width="28.7" height="24" xmlns="http://www.w3.org/2000/svg">

 <g>
  <title>background</title>
  <rect fill="none" id="canvas_background" height="26" width="30.7" y="-1" x="-1"/>
 </g>
 <g>
  <title>Layer 1</title>
  <path id="svg_1" fill="#a78859" d="m14.7583,0c-7.58901,0 -13.74163,5.37213 -13.74163,12c0,1.7353 0.42606,3.3844 1.18539,4.8736c-0.55684,1.0812 -1.29087,1.9499 -2.20206,2.5999c1.67473,0.8371 3.3305,1.1505 4.97148,0.9465c2.49312,2.2086 5.95642,3.58 9.78682,3.58c7.5891,0 13.7417,-5.3721 13.7417,-12c0,-6.62787 -6.1526,-12 -13.7417,-12z"/>
  <path id="svg_2" fill="#fff" d="m21.4681,13.4404c-0.3485,0.5681 -0.7013,1.1279 -1.1192,1.6352c-0.5354,0.6688 -1.1129,1.2977 -1.7281,1.8805c-0.5648,0.5325 -1.1381,1.0545 -1.7281,1.5367c-0.7853,0.6415 -1.6021,1.2453 -2.4043,1.8679c-0.0546,0.0524 -0.1365,0.0524 -0.1911,0c-0.7055,-0.5388 -1.4299,-1.0545 -2.1165,-1.6247c-0.7224,-0.5996 -1.4132,-1.2327 -2.1103,-1.8784c-0.25831,-0.239 -0.50817,-0.4864 -0.75175,-0.7443c-1.72393,0.6898 -3.28827,1.2831 -4.51875,1.6981c2.70873,-1.8134 6.1755,-3.7987 9.0018,-5.3102c-1.9759,0.87 -5.90673,1.9182 -6.36868,1.1761c-0.39476,-0.6331 -0.63623,-1.3627 -0.77902,-2.1132c-0.05459,-0.218 -0.09028,-0.4193 -0.12808,-0.6268l0,-0.7883c0.0084,-0.044 0.0168,-0.088 0.0273,-0.132c0.06929,-0.34174 0.11339,-0.68346 0.21208,-1.02518c0.33177,-1.12997 1.0478,-2.07964 2.00111,-2.65616c0.88821,-0.56393 1.93179,-0.761 2.94389,-0.55765c0.9869,0.1761 1.8856,0.72117 2.545,1.53668c0.0315,0.04821 0.0608,0.10062 0.0839,0.15303c0.1722,-0.18658 0.2982,-0.32913 0.4326,-0.4654c1.6924,-1.71906 4.3193,-1.72954 6.0222,-0.02306c0.6236,0.61635 1.0688,1.41508 1.2809,2.30187c1.8835,-0.3522 3.725,-0.61425 3.725,-0.61425c-1.4174,0.80712 -4.4914,2.27252 -7.975,3.82802c1.4783,-0.4276 4.9366,-1.1614 3.6431,0.9455z"/>
 </g>
</svg>